# xmcd
#
# Track frame offsets:
#	150
#	12313
#	28198
#	41230
#	56430
#	72080
#	84078
#	98920
#	110938
#	125005
#	138445
#	149523
#	164145
#	177303
#	193330
#	206695
#
# Disc length: 2875
#
# Revision: 1
# Processed by: cddbd v1.5.1PL0 Copyright (c) Steve Scherf et al.
# Submitted via: CDex 1.51
# Normalized: r0:TRMNUM
#
DISCID=f80b3910
DTITLE=Various Artist - Originalni prazsky synkopicky orchestr
DYEAR=1900
DGENRE=Jazz
TTITLE0=Hello Baby
TTITLE1=I'm Crazy Over You
TTITLE2=I Gotta Get Myself Somebody to Love
TTITLE3=Can't We Be Friends_
TTITLE4=Birmingham Bertha
TTITLE5=He's Still My Baby
TTITLE6=If I Had a Girl Like you
TTITLE7=I Wonder What's Become of Joe
TTITLE8=Organ Grinder Blues
TTITLE9=What a Day
TTITLE10=Terror
TTITLE11=You're Driving Me Crazy
TTITLE12=From Monday On
TTITLE13=Body and Soul
TTITLE14=It's the Girl
TTITLE15=Gee, Ain't I Good to You
EXTD=
EXTT0=
EXTT1=
EXTT2=
EXTT3=
EXTT4=
EXTT5=
EXTT6=
EXTT7=
EXTT8=
EXTT9=
EXTT10=
EXTT11=
EXTT12=
EXTT13=
EXTT14=
EXTT15=
PLAYORDER=
